#Comment line ignore any data following # character 
#Hierarchical Translation and Rotation (.htr) file 
[Header]	
#Header keywords are followed by a single value 
FileType HTR		#Single word string
DataType HTRS		#Translation followed by rotation and scale data
FileVersion 1		#integer
NumSegments 64		#integer
NumFrames 3		#integer
DataFrameRate 30		#integer, data frame rate in this file
EulerRotationOrder ZYX
CalibrationUnits mm
RotationUnits Degrees
GlobalAxisofGravity Y
BoneLengthAxis Y
ScaleFactor 1.00
[SegmentNames&Hierarchy]
#CHILD	PARENT
Pinger_Root GLOBAL
Pelvis Pinger_Root
L_Hip Pelvis
R_Hip Pelvis
Rear_Leg01 Pelvis
Spine1 Pelvis
L_Leg01 L_Hip
L_Leg02 L_Leg01
L_Leg03 L_Leg02
L_Foot L_Leg03
L_Toe1_01 L_Foot
L_Toe2_01 L_Foot
L_Toe3_01 L_Foot
planeAlignerLeft L_Foot
L_Toe1_02 L_Toe1_01
L_Toe1_03 L_Toe1_02
L_Toe2_02 L_Toe2_01
L_Toe2_03 L_Toe2_02
L_Toe3_02 L_Toe3_01
L_Toe3_03 L_Toe3_02
planeLockWeightLeft planeAlignerLeft
R_Leg01 R_Hip
R_Leg02 R_Leg01
R_Leg03 R_Leg02
R_Foot R_Leg03
planeAlignerRight R_Foot
R_Toe1_01 R_Foot
R_Toe2_01 R_Foot
R_Toe3_01 R_Foot
planeLockWeightRight planeAlignerRight
R_Toe1_02 R_Toe1_01
R_Toe1_03 R_Toe1_02
R_Toe2_02 R_Toe2_01
R_Toe2_03 R_Toe2_02
R_Toe3_02 R_Toe3_01
R_Toe3_03 R_Toe3_02
Rear_Leg02 Rear_Leg01
Rear_Leg03 Rear_Leg02
Rear_Leg04 Rear_Leg03
Rear_Foot Rear_Leg04
planeAlignerCenter Rear_Foot
Rear_Toe1_01 Rear_Foot
Rear_Toe2_01 Rear_Foot
Rear_Toe3_01 Rear_Foot
planeLockWeightCenter planeAlignerCenter
Rear_Toe1_02 Rear_Toe1_01
Rear_Toe1_03 Rear_Toe1_02
Rear_Toe2_02 Rear_Toe2_01
Rear_Toe2_03 Rear_Toe2_02
Rear_Toe3_02 Rear_Toe3_01
Rear_Toe3_03 Rear_Toe3_02
Back_Bone Spine1
Head Spine1
Motor_Bone Back_Bone
Ping_Mechanism Back_Bone
BN_LookIK Head
bottomMouth Head
L_Mouth01 Head
L_mouthFront Head
mouthGun Head
R_Mouth01 Head
R_mouthFront Head
TopMouth Head
weapon_bone Head
[BasePosition]
#SegmentName Tx, Ty, Tz, Rx, Ry, Rz, BoneLength
Pinger_Root 0.000000 0.000000 0.000000 -90.000000 0.000000 0.000000 10.000000 
Pelvis 0.000000 0.000000 0.000000 0.000000 0.000000 0.000000 10.000000 
L_Hip 0.000000 0.000000 0.000000 0.000000 0.000000 0.000000 10.000000 
R_Hip 0.000000 0.000000 0.000000 0.000000 0.000000 0.000000 10.000000 
Rear_Leg01 0.000000 0.000000 0.000000 0.000000 0.000000 0.000000 10.000000 
Spine1 0.000000 0.000000 0.000000 0.000000 0.000000 0.000000 10.000000 
L_Leg01 0.000000 0.000000 0.000000 0.000000 0.000000 0.000000 10.000000 
L_Leg02 0.000000 0.000000 0.000000 0.000000 0.000000 0.000000 10.000000 
L_Leg03 0.000000 0.000000 0.000000 0.000000 0.000000 0.000000 10.000000 
L_Foot 0.000000 0.000000 0.000000 0.000000 0.000000 0.000000 10.000000 
L_Toe1_01 0.000000 0.000000 0.000000 0.000000 0.000000 0.000000 10.000000 
L_Toe2_01 0.000000 0.000000 0.000000 0.000000 0.000000 0.000000 10.000000 
L_Toe3_01 0.000000 0.000000 0.000000 0.000000 0.000000 0.000000 10.000000 
planeAlignerLeft 0.000000 0.000000 0.000000 0.000000 0.000000 0.000000 10.000000 
L_Toe1_02 0.000000 0.000000 0.000000 0.000000 0.000000 0.000000 10.000000 
L_Toe1_03 0.000000 0.000000 0.000000 0.000000 0.000000 0.000000 10.000000 
L_Toe2_02 0.000000 0.000000 0.000000 0.000000 0.000000 0.000000 10.000000 
L_Toe2_03 0.000000 0.000000 0.000000 0.000000 0.000000 0.000000 10.000000 
L_Toe3_02 0.000000 0.000000 0.000000 0.000000 0.000000 0.000000 10.000000 
L_Toe3_03 0.000000 0.000000 0.000000 0.000000 0.000000 0.000000 10.000000 
planeLockWeightLeft 0.000000 0.000000 0.000000 0.000000 0.000000 0.000000 10.000000 
R_Leg01 0.000000 0.000000 0.000000 0.000000 0.000000 0.000000 10.000000 
R_Leg02 0.000000 0.000000 0.000000 0.000000 0.000000 0.000000 10.000000 
R_Leg03 0.000000 0.000000 0.000000 0.000000 0.000000 0.000000 10.000000 
R_Foot 0.000000 0.000000 0.000000 0.000000 0.000000 0.000000 10.000000 
planeAlignerRight 0.000000 0.000000 0.000000 0.000000 0.000000 0.000000 10.000000 
R_Toe1_01 0.000000 0.000000 0.000000 0.000000 0.000000 0.000000 10.000000 
R_Toe2_01 0.000000 0.000000 0.000000 0.000000 0.000000 0.000000 10.000000 
R_Toe3_01 0.000000 0.000000 0.000000 0.000000 0.000000 0.000000 10.000000 
planeLockWeightRight 0.000000 0.000000 0.000000 0.000000 0.000000 0.000000 10.000000 
R_Toe1_02 0.000000 0.000000 0.000000 0.000000 0.000000 0.000000 10.000000 
R_Toe1_03 0.000000 0.000000 0.000000 0.000000 0.000000 0.000000 10.000000 
R_Toe2_02 0.000000 0.000000 0.000000 0.000000 0.000000 0.000000 10.000000 
R_Toe2_03 0.000000 0.000000 0.000000 0.000000 0.000000 0.000000 10.000000 
R_Toe3_02 0.000000 0.000000 0.000000 0.000000 0.000000 0.000000 10.000000 
R_Toe3_03 0.000000 0.000000 0.000000 0.000000 0.000000 0.000000 10.000000 
Rear_Leg02 0.000000 0.000000 0.000000 0.000000 0.000000 0.000000 10.000000 
Rear_Leg03 0.000000 0.000000 0.000000 0.000000 0.000000 0.000000 10.000000 
Rear_Leg04 0.000000 0.000000 0.000000 0.000000 0.000000 0.000000 10.000000 
Rear_Foot 0.000000 0.000000 0.000000 0.000000 0.000000 0.000000 10.000000 
planeAlignerCenter 0.000000 0.000000 0.000000 0.000000 0.000000 0.000000 10.000000 
Rear_Toe1_01 0.000000 0.000000 0.000000 0.000000 0.000000 0.000000 10.000000 
Rear_Toe2_01 0.000000 0.000000 0.000000 0.000000 0.000000 0.000000 10.000000 
Rear_Toe3_01 0.000000 0.000000 0.000000 0.000000 0.000000 0.000000 10.000000 
planeLockWeightCenter 0.000000 0.000000 0.000000 0.000000 0.000000 0.000000 10.000000 
Rear_Toe1_02 0.000000 0.000000 0.000000 0.000000 0.000000 0.000000 10.000000 
Rear_Toe1_03 0.000000 0.000000 0.000000 0.000000 0.000000 0.000000 10.000000 
Rear_Toe2_02 0.000000 0.000000 0.000000 0.000000 0.000000 0.000000 10.000000 
Rear_Toe2_03 0.000000 0.000000 0.000000 0.000000 0.000000 0.000000 10.000000 
Rear_Toe3_02 0.000000 0.000000 0.000000 0.000000 0.000000 0.000000 10.000000 
Rear_Toe3_03 0.000000 0.000000 0.000000 0.000000 0.000000 0.000000 10.000000 
Back_Bone 0.000000 0.000000 0.000000 0.000000 0.000000 0.000000 10.000000 
Head 0.000000 0.000000 0.000000 0.000000 0.000000 0.000000 10.000000 
Motor_Bone 0.000000 0.000000 0.000000 0.000000 0.000000 0.000000 10.000000 
Ping_Mechanism 0.000000 0.000000 0.000000 0.000000 0.000000 0.000000 10.000000 
BN_LookIK 0.000000 0.000000 0.000000 0.000000 0.000000 0.000000 10.000000 
bottomMouth 0.000000 0.000000 0.000000 0.000000 0.000000 0.000000 10.000000 
L_Mouth01 0.000000 0.000000 0.000000 0.000000 0.000000 0.000000 10.000000 
L_mouthFront 0.000000 0.000000 0.000000 0.000000 0.000000 0.000000 10.000000 
mouthGun 0.000000 0.000000 0.000000 0.000000 0.000000 0.000000 10.000000 
R_Mouth01 0.000000 0.000000 0.000000 0.000000 0.000000 0.000000 10.000000 
R_mouthFront 0.000000 0.000000 0.000000 0.000000 0.000000 0.000000 10.000000 
TopMouth 0.000000 0.000000 0.000000 0.000000 0.000000 0.000000 10.000000 
weapon_bone 0.000000 0.000000 0.000000 0.000000 0.000000 0.000000 10.000000 
#Beginning of Data. Separated by tabs
#Fr	Tx	Ty	Tz	Rx	Ry	Rz	SF
[Pinger_Root]
11 -860.058289 -0.000237 0.000000 -0.000075 -0.000000 -0.000020 860.058350
12 -955.043823 -0.000264 0.000000 -0.000075 -0.000000 -0.000020 955.043823
13 -1050.029297 -0.000290 0.000000 -0.000075 -0.000000 -0.000020 1050.029297
[Pelvis]
11 -441.780151 16.577124 4928.583984 54.011040 -75.673882 -16.504396 4948.372070
12 -394.600891 -7.970013 4841.922852 44.628326 -76.188141 -6.333639 4857.981934
13 -347.411194 -31.691133 4749.601563 38.764687 -75.888184 0.506616 4762.395508
[L_Hip]
11 5.766392 125.831482 872.656799 -178.253311 -81.787758 87.381340 881.701050
12 5.766392 125.831482 872.656799 -178.253342 -81.787636 87.381248 881.701050
13 5.766392 125.831482 872.656799 -178.253326 -81.787636 87.381203 881.701050
[R_Hip]
11 5.765438 125.836372 -872.654907 -1.746690 81.787712 87.381248 881.699829
12 5.765438 125.836372 -872.654907 -1.746690 81.787666 87.381248 881.699829
13 5.765438 125.836372 -872.654907 -1.746701 81.787666 87.381203 881.699829
[Rear_Leg01]
11 -192.298416 -925.602966 -0.001907 171.202972 10.103659 -177.195023 945.367432
12 -192.298416 -925.602966 -0.001907 163.882858 9.316676 169.395432 945.367432
13 -192.298416 -925.602966 -0.001907 159.514069 7.697586 160.294342 945.367432
[Spine1]
11 290.604584 5.007505 0.000477 -27.828705 5.694413 37.101978 290.647736
12 290.604584 5.007505 0.000477 -29.137707 4.717624 34.956692 290.647736
13 290.604584 5.007505 0.000477 -30.539995 4.047008 33.780918 290.647736
[L_Leg01]
11 761.932007 -0.002384 -0.069261 68.024376 -1.398840 -82.287407 761.932068
12 761.932007 -0.002384 -0.069261 68.025711 -5.613018 -83.209435 761.932068
13 761.932007 -0.002384 -0.069261 68.242920 -8.636332 -84.042900 761.932068
[L_Leg02]
11 1441.140503 -0.000954 -0.000715 -1.115638 0.930032 -100.238258 1441.140503
12 1441.140503 -0.000954 -0.000715 -1.115761 0.920030 -103.793495 1441.140503
13 1441.140503 -0.000954 -0.000715 -1.115262 0.910041 -107.348694 1441.140503
[L_Leg03]
11 1686.963989 -0.000715 -0.000954 0.129886 -0.004026 74.964722 1686.963989
12 1686.963989 -0.000715 -0.000954 0.125225 -0.005808 76.035858 1686.963989
13 1686.963989 -0.000715 -0.000954 0.120533 -0.007501 77.107094 1686.963989
[L_Foot]
11 3041.570068 -30.715107 11.297464 -13.641871 16.701651 92.573463 3041.746094
12 3041.570068 -30.715107 11.297464 -13.156477 16.660620 93.426201 3041.746094
13 3041.570068 -30.715107 11.297464 -12.671913 16.612682 94.278320 3041.746094
[L_Toe1_01]
11 -188.216690 -224.732346 -21.137953 89.342567 -1.869737 -162.487869 293.899567
12 -188.216690 -224.732346 -21.137953 89.338120 -1.926863 -162.212936 293.899567
13 -188.216690 -224.732346 -21.137953 89.333374 -1.983969 -161.937973 293.899567
[L_Toe2_01]
11 200.746536 -219.926590 148.838394 -77.631767 -13.521218 -44.901943 332.896027
12 200.746536 -219.926590 148.838394 -77.574867 -13.582121 -45.085564 332.896027
13 200.746536 -219.926590 148.838394 -77.517754 -13.642852 -45.269299 332.896027
[L_Toe3_01]
11 188.832520 -219.859131 -191.078659 -106.063843 16.609604 -46.734684 347.140900
12 188.832520 -219.859131 -191.078659 -106.107010 16.598339 -46.879333 347.140900
13 188.832520 -219.859131 -191.078659 -106.150139 16.586964 -47.023960 347.140900
[planeAlignerLeft]
11 -49.598698 -624.824524 0.011445 0.000000 -89.972023 -90.028198 626.790039
12 -51.772427 -626.712219 1.011774 0.000000 -90.000000 -90.030869 628.847839
13 -53.946156 -628.599854 2.012102 0.000000 -89.965736 -90.033516 630.913696
[L_Toe1_02]
11 413.761139 0.000477 0.000000 0.001401 -23.764685 0.001401 413.761139
12 413.761139 0.000477 0.000000 0.001400 -23.948971 0.001400 413.761139
13 413.761139 0.000477 0.000000 0.001398 -24.133249 0.001398 413.761139
[L_Toe1_03]
11 464.317322 0.000358 -0.000089 0.008437 74.007904 0.008437 464.317322
12 464.317322 0.000358 -0.000089 0.008149 73.439270 0.008149 464.317322
13 464.317322 0.000358 -0.000089 0.007881 72.870605 0.007881 464.317322
[L_Toe2_02]
11 342.235809 -0.000477 0.000238 0.001179 -78.754929 0.001179 342.235809
12 342.235809 -0.000477 0.000238 0.001179 -78.728111 0.001179 342.235809
13 342.235809 -0.000477 0.000238 0.001179 -78.701241 0.001179 342.235809
[L_Toe2_03]
11 420.210846 -0.000715 0.000000 -179.998032 72.350967 -179.994492 420.210846
12 420.210846 -0.000715 0.000000 -179.998047 72.279068 -179.994507 420.210846
13 420.210846 -0.000715 0.000000 -179.998047 72.207138 -179.994522 420.210846
[L_Toe3_02]
11 329.270111 0.000954 0.000000 0.001176 -82.067047 0.001176 329.270111
12 329.270111 0.000954 0.000000 0.001176 -82.106911 0.001176 329.270111
13 329.270111 0.000954 0.000000 0.001176 -82.146820 0.001176 329.270111
[L_Toe3_03]
11 439.137451 -0.001907 0.000954 -179.998337 70.747749 -179.994781 439.137451
12 439.137451 -0.001907 0.000954 -179.998352 70.630737 -179.994812 439.137451
13 439.137451 -0.001907 0.000954 -179.998383 70.513748 -179.994827 439.137451
[planeLockWeightLeft]
11 1000.000244 -0.000305 -0.000093 -0.011826 -0.004376 0.005620 1000.000244
12 1000.000244 -0.000305 -0.000089 -0.011826 -0.004376 0.005620 1000.000244
13 1000.000244 -0.000305 -0.000085 -0.011826 -0.004376 0.005620 1000.000244
[R_Leg01]
11 761.455627 -0.001907 -0.000358 70.020393 -16.470219 64.344673 761.455688
12 761.455627 -0.001907 -0.000358 71.981514 -22.057438 60.660175 761.455688
13 761.455627 -0.001907 -0.000358 75.817932 -28.083864 56.168934 761.455688
[R_Leg02]
11 1441.140625 0.000000 -0.000238 0.184611 -0.052713 -106.909988 1441.140625
12 1441.140625 0.000000 -0.000238 0.165179 -0.040233 -112.950851 1441.140625
13 1441.140625 0.000000 -0.000238 0.086338 -0.051611 -120.150368 1441.140625
[R_Leg03]
11 1686.963989 0.000954 0.001431 -0.038830 0.010525 100.296989 1686.963989
12 1686.963989 0.000954 0.001431 -0.031801 0.010101 101.029449 1686.963989
13 1686.963989 0.000954 0.001431 -0.038817 0.010573 100.438652 1686.963989
[R_Foot]
11 3041.560059 -30.531288 -11.204481 44.799244 -32.319649 35.872814 3041.734131
12 3041.560059 -30.531288 -11.204481 54.032890 -30.202564 25.869610 3041.734131
13 3041.560059 -30.531288 -11.204481 61.463547 -27.334318 18.477455 3041.734131
[planeAlignerRight]
11 -210.520538 -730.113647 78.316544 0.000000 -89.951546 -90.024025 763.883728
12 -228.736588 -739.384277 77.071831 0.000000 -89.951546 -90.025940 777.785095
13 -243.269958 -747.439575 74.498894 0.000000 -89.951546 -90.027840 789.554443
[R_Toe1_01]
11 -188.383347 -224.864899 21.052242 91.455948 2.072592 -135.545242 294.101532
12 -188.383347 -224.864899 21.052242 91.561531 2.849128 -131.504990 294.101532
13 -188.383347 -224.864899 21.052242 91.567261 3.079447 -130.680435 294.101532
[R_Toe2_01]
11 200.637817 -220.002121 -148.787384 -103.551231 9.524411 -52.625076 332.857574
12 200.637817 -220.002121 -148.787384 -103.727104 9.616699 -53.393768 332.857574
13 200.637817 -220.002121 -148.787384 -103.904243 9.706641 -54.162880 332.857574
[R_Toe3_01]
11 188.606735 -220.092957 191.126343 -69.258980 -21.771826 -58.354916 347.192566
12 188.606735 -220.092957 191.126343 -69.054703 -21.722643 -59.140423 347.192566
13 188.606735 -220.092957 191.126343 -68.929344 -21.639479 -59.712822 347.192566
[planeLockWeightRight]
11 647.999573 0.000305 -0.000153 -0.011823 -0.004379 -0.000027 647.999573
12 351.999329 0.000458 0.000000 -0.011823 -0.004379 -0.000027 351.999359
13 103.999428 0.000153 0.000000 -0.011823 -0.004379 -0.000027 103.999428
[R_Toe1_02]
11 413.762085 0.000477 -0.000119 0.001385 -25.840391 0.001385 413.762085
12 413.762085 0.000477 -0.000119 0.001385 -25.911442 0.001385 413.762085
13 413.762085 0.000477 -0.000119 0.001384 -25.982473 0.001384 413.762085
[R_Toe1_03]
11 464.317810 0.000000 0.001088 0.003799 54.013180 0.003799 464.317810
12 464.317810 0.000000 0.001088 0.003697 52.983040 0.003697 464.317810
13 464.317810 0.000000 0.001088 0.003861 54.607922 0.003861 464.317810
[R_Toe2_02]
11 342.234741 -0.000954 0.000238 -0.002332 -80.025475 -0.002332 342.234741
12 342.234741 -0.000954 0.000238 -0.002332 -80.042648 -0.002332 342.234741
13 342.234741 -0.000954 0.000238 -0.002332 -80.059837 -0.002332 342.234741
[R_Toe2_03]
11 420.210846 0.000715 -0.000268 -179.995789 62.514153 -179.999374 420.210846
12 420.210846 0.000715 -0.000268 -179.995804 62.357838 -179.999390 420.210846
13 420.210846 0.000715 -0.000268 -179.995819 62.201481 -179.999405 420.210846
[R_Toe3_02]
11 329.270355 -0.000477 -0.000954 0.001176 -82.545708 0.001176 329.270355
12 329.270355 -0.000477 -0.000954 0.001176 -82.537994 0.001176 329.270355
13 329.270355 -0.000477 -0.000954 0.001176 -82.530342 0.001176 329.270355
[R_Toe3_03]
11 439.137939 0.000238 0.001431 -179.998566 69.392418 -179.995010 439.137939
12 439.137939 0.000238 0.001431 -179.998596 69.156319 -179.995041 439.137939
13 439.137939 0.000238 0.001431 -179.998642 68.920189 -179.995071 439.137939
[Rear_Leg02]
11 1162.777710 -0.029802 0.005960 14.730556 -9.116939 -148.751160 1162.777710
12 1162.777710 -0.029802 0.005960 12.723217 -8.324227 -162.829788 1162.777710
13 1162.777710 -0.029802 0.005960 10.649965 -6.779483 -175.686874 1162.777710
[Rear_Leg03]
11 607.192505 -0.013351 -0.073195 0.010013 -0.005992 78.147369 607.192505
12 607.192505 -0.013351 -0.073195 0.010033 -0.005958 77.764603 607.192505
13 607.192505 -0.013351 -0.073195 0.010026 -0.005970 77.898087 607.192505
[Rear_Leg04]
11 995.874512 -0.020504 -0.011921 -0.043634 -0.016150 93.536339 995.874573
12 995.874512 -0.020504 -0.011921 -0.043478 -0.016564 92.445358 995.874573
13 995.874512 -0.020504 -0.011921 -0.043550 -0.016375 92.944351 995.874573
[Rear_Foot]
11 3096.176270 -0.067472 -0.041425 -72.487846 72.036118 75.469681 3096.176270
12 3096.176270 -0.067472 -0.041425 -70.093979 73.827461 82.545006 3096.176270
13 3096.176270 -0.067472 -0.041425 -66.517899 76.162918 90.354507 3096.176270
[planeAlignerCenter]
11 -69.724854 170.619629 -693.838379 0.001750 -0.001564 173.590332 717.902649
12 -42.377998 213.402847 -650.085876 0.001825 -0.001477 167.968109 685.527710
13 -37.924595 209.637192 -651.553833 0.001866 -0.001425 164.729218 685.498657
[Rear_Toe1_01]
11 0.653352 83.966492 -371.173737 1.460824 24.547449 87.785660 380.553192
12 0.653352 83.966492 -371.173737 1.090445 23.247421 81.502586 380.553192
13 0.653352 83.966492 -371.173737 1.126693 23.118006 78.167885 380.553192
[Rear_Toe2_01]
11 178.200760 -294.826019 -362.060547 -3.613528 45.353138 -85.137611 499.765686
12 178.200760 -294.826019 -362.060547 -4.130053 41.341610 -92.324753 499.765686
13 178.200760 -294.826019 -362.060547 -5.220358 41.678627 -98.116608 499.765686
[Rear_Toe3_01]
11 -153.359680 -308.780914 -362.060852 -8.011383 45.713867 -132.700516 499.952881
12 -153.359680 -308.780914 -362.060852 -9.355651 42.023335 -142.314270 499.952881
13 -153.359680 -308.780914 -362.060852 -10.086851 42.322277 -147.507248 499.952881
[planeLockWeightCenter]
11 1000.000366 0.000552 -0.000112 -0.011814 -0.004373 -0.000015 1000.000366
12 1000.000366 0.000558 -0.000115 -0.011814 -0.004373 -0.000015 1000.000366
13 1000.000366 0.000563 -0.000117 -0.011814 -0.004373 -0.000015 1000.000366
[Rear_Toe1_02]
11 379.707825 0.194073 0.000477 0.000539 -31.972105 0.004144 379.707855
12 379.707825 0.194073 0.000477 -0.000168 -30.639606 0.006894 379.707855
13 379.707825 0.194073 0.000477 -0.000201 -31.106508 0.006912 379.707855
[Rear_Toe1_03]
11 500.129700 0.165701 0.000119 0.000131 54.090893 0.007483 500.129761
12 500.129700 0.165701 0.000119 -0.000542 47.163548 0.006970 500.129761
13 500.129700 0.165701 0.000119 -0.000377 49.053768 0.007088 500.129761
[Rear_Toe2_02]
11 340.494507 0.000238 -0.000954 0.000000 -89.739059 -0.002347 340.494507
12 340.494507 0.000238 -0.000954 179.998825 -88.160805 179.998825 340.494507
13 340.494507 0.000238 -0.000954 179.998825 -88.823303 179.998825 340.494507
[Rear_Toe2_03]
11 433.103577 0.000000 0.000238 -179.995499 65.529137 -179.999084 433.103546
12 433.103577 0.000000 0.000238 -179.996017 59.255199 -179.999649 433.103546
13 433.103577 0.000000 0.000238 -179.995834 61.964809 -179.999435 433.103546
[Rear_Toe3_02]
11 340.494141 -0.000358 -0.000477 0.001174 -87.276306 0.001174 340.494171
12 340.494141 -0.000358 -0.000477 0.001174 -89.407188 0.001174 340.494171
13 340.494141 -0.000358 -0.000477 0.001174 -88.477997 0.001174 340.494171
[Rear_Toe3_03]
11 433.103577 0.001431 -0.000238 -179.997330 75.095589 -179.993805 433.103546
12 433.103577 0.001431 -0.000238 -179.998703 68.518776 -179.995148 433.103546
13 433.103577 0.001431 -0.000238 -179.998199 71.477257 -179.994659 433.103546
[Back_Bone]
11 1312.175781 -701.934692 0.000954 -1.700753 -3.550500 -81.080811 1488.125488
12 1312.175781 -701.934692 0.000954 -1.193589 -3.647466 -80.542175 1488.125488
13 1312.175781 -701.934692 0.000954 -0.512019 -3.647213 -80.337898 1488.125488
[Head]
11 1406.159424 809.709290 0.001431 -9.593980 5.910149 -1.369408 1622.625488
12 1406.159424 809.709290 0.001431 -9.568265 5.597010 -0.954083 1622.625488
13 1406.159424 809.709290 0.001431 -9.542588 5.292416 0.329782 1622.625488
[Motor_Bone]
11 1158.364380 -417.834747 0.000477 -1.845118 -0.485017 -106.470413 1231.419434
12 1158.364380 -417.834747 0.000477 -1.729657 -0.306488 -106.290817 1231.419434
13 1158.364380 -417.834747 0.000477 -1.440879 0.000172 -105.983208 1231.419434
[Ping_Mechanism]
11 1198.020508 -408.944092 66.321640 0.000103 -0.000053 82.120995 1267.630371
12 1207.793579 -416.438904 67.696762 0.000103 -0.000053 82.120995 1279.363037
13 1214.378906 -420.128479 70.372398 0.000103 -0.000053 82.120995 1286.925171
[BN_LookIK]
11 193.241119 1380.371704 -0.002861 0.000000 89.965736 -31.038179 1393.832153
12 193.241119 1380.371704 -0.002861 0.000000 89.965736 -31.038179 1393.832153
13 193.241119 1380.371704 -0.002861 0.000000 89.965736 -31.038179 1393.832153
[bottomMouth]
11 -435.092926 615.759399 -0.000954 -0.000022 0.000016 73.527184 753.966492
12 -435.092926 615.759399 -0.000954 -0.000022 0.000016 73.527184 753.966492
13 -435.092926 615.759399 -0.000954 -0.000022 0.000016 73.527184 753.966492
[L_Mouth01]
11 554.440979 7.658243 838.222046 150.204178 23.759130 109.605339 1005.027161
12 554.440979 7.658243 838.222046 150.204178 23.759130 109.605339 1005.027161
13 554.440979 7.658243 838.222046 150.204178 23.759130 109.605339 1005.027161
[L_mouthFront]
11 551.629089 934.514771 339.150421 0.000081 2.804060 79.119301 1136.941284
12 551.629089 934.514771 339.150421 0.000081 2.804060 79.119301 1136.941284
13 551.629089 934.514771 339.150421 0.000081 2.804060 79.119301 1136.941284
[mouthGun]
11 55.332661 1627.420898 0.000000 0.000023 0.000009 -11.038128 1628.361328
12 55.332661 1627.420898 0.000000 0.000023 0.000009 -11.038128 1628.361328
13 55.332661 1627.420898 0.000000 0.000023 0.000009 -11.038128 1628.361328
[R_Mouth01]
11 554.442383 7.659197 -838.223938 29.795891 -23.759109 109.605331 1005.029541
12 554.442383 7.659197 -838.223938 29.795891 -23.759109 109.605331 1005.029541
13 554.442383 7.659197 -838.223938 29.795891 -23.759109 109.605331 1005.029541
[R_mouthFront]
11 551.629089 934.514282 -339.151367 0.000029 -2.803930 79.119133 1136.941162
12 551.629089 934.514282 -339.151367 0.000029 -2.803930 79.119133 1136.941162
13 551.629089 934.514282 -339.151367 0.000029 -2.803930 79.119133 1136.941162
[TopMouth]
11 461.269867 -56.106091 -0.008583 -0.000059 -0.000268 92.025169 464.669525
12 461.269867 -56.106091 -0.008583 -0.000059 -0.000268 92.025169 464.669525
13 461.269867 -56.106091 -0.008583 -0.000059 -0.000268 92.025169 464.669525
[weapon_bone]
11 -987.239868 1448.372803 0.001431 0.000000 89.965736 -31.038221 1752.833740
12 -987.239868 1448.372803 0.001431 0.000000 89.965736 -31.038221 1752.833740
13 -987.239868 1448.372803 0.001431 0.000000 89.965736 -31.038221 1752.833740
